<?xml version="1.0" encoding="UTF-8" standalone="no"?>
<svg
   xmlns:dc="http://purl.org/dc/elements/1.1/"
   xmlns:cc="http://creativecommons.org/ns#"
   xmlns:rdf="http://www.w3.org/1999/02/22-rdf-syntax-ns#"
   xmlns:svg="http://www.w3.org/2000/svg"
   xmlns="http://www.w3.org/2000/svg"
   xmlns:sodipodi="http://sodipodi.sourceforge.net/DTD/sodipodi-0.dtd"
   xmlns:inkscape="http://www.inkscape.org/namespaces/inkscape"
   width="1200"
   height="297"
   id="svg2"
   version="1.1"
   inkscape:version="0.48.5 r10040"
   sodipodi:docname="rs_big.svg">
  <metadata
     id="metadata24">
    <rdf:RDF>
      <cc:Work
         rdf:about="">
        <dc:format>image/svg+xml</dc:format>
        <dc:type
           rdf:resource="http://purl.org/dc/dcmitype/StillImage" />
        <dc:title />
      </cc:Work>
    </rdf:RDF>
  </metadata>
  <defs
     id="defs22" />
  <sodipodi:namedview
     pagecolor="#ffffff"
     bordercolor="#666666"
     borderopacity="1"
     objecttolerance="10"
     gridtolerance="10"
     guidetolerance="10"
     inkscape:pageopacity="0"
     inkscape:pageshadow="2"
     inkscape:window-width="1600"
     inkscape:window-height="834"
     id="namedview20"
     showgrid="false"
     inkscape:zoom="0.65555556"
     inkscape:cx="74.745765"
     inkscape:cy="180"
     inkscape:window-x="0"
     inkscape:window-y="27"
     inkscape:window-maximized="1"
     inkscape:current-layer="svg2" />
  <rect
     width="1200"
     height="297"
     id="rect4"
     x="0"
     y="-5.6843419e-14"
     style="fill:#282b34;fill-opacity:1" />
  <g
     id="g3025"
     transform="matrix(1.8709885,0,0,1.8709885,287.9305,-259.13409)">
    <path
       style="fill:#b53a2c"
       inkscape:connector-curvature="0"
       id="path6"
       d="m 215.73548,204.60763 c 1.04818,0.33615 2.18737,0.5455 3.18258,1.04903 3.33289,1.68674 5.22279,4.49583 5.26444,8.28017 0.096,8.82659 0.0851,17.65595 0.005,26.48254 -0.0317,3.57407 -1.78033,6.26834 -4.80352,8.07497 -0.30608,0.1826 -0.40977,0.3546 -0.40886,0.70135 0.01,4.64339 -0.0457,9.2877 0.0213,13.93017 0.0666,4.68766 -3.67474,8.08835 -7.89237,8.18334 -1.55891,0.035 -3.10153,0.002 -4.5803,-0.61651 -3.04674,-1.27497 -4.92984,-4.07391 -4.93573,-7.42711 -0.009,-4.30355 -0.002,-8.60664 -0.002,-12.90973 v -0.64556 h -69.75223 v 0.57363 c 0,4.28695 -0.0693,8.57482 0.019,12.85946 0.0937,4.55301 -3.57649,8.04593 -7.79864,8.15844 -1.42172,0.0383 -2.83801,0.048 -4.20993,-0.43621 -3.16582,-1.11958 -5.55784,-4.09006 -5.41024,-8.44064 0.15168,-4.48523 0.0326,-8.97922 0.0172,-13.46859 -4.6e-4,-0.14387 -0.12678,-0.34491 -0.2522,-0.42054 -3.27313,-1.98231 -4.86555,-4.91544 -4.86148,-8.7837 0.009,-8.48721 -0.0131,-16.97489 0.0109,-25.46302 0.01,-3.51505 1.51318,-6.2582 4.40689,-8.16259 1.26098,-0.83 2.67048,-1.31186 4.19362,-1.37734 0.26443,-0.0115 0.5284,-0.0447 0.80776,-0.0687 0,-0.16185 0.0258,-0.29926 -0.004,-0.4233 -0.47995,-1.99615 -0.27575,-3.98262 0.053,-5.97231 1.3289,-8.04593 2.66505,-16.09094 3.96588,-24.14148 0.35136,-2.17321 0.87884,-4.2602 2.17877,-6.06683 1.32709,-1.84445 2.98109,-3.20334 5.26897,-3.58468 0.31106,-0.0521 0.63163,-0.0636 0.94767,-0.0636 23.4489,-0.003 46.89827,-0.001 70.34717,-0.005 1.93789,0 3.57016,0.77006 5.00863,2.02197 1.92295,1.67476 3.11783,3.82446 3.62675,6.31677 0.99159,4.85872 1.89986,9.73497 2.82986,14.60661 0.85892,4.50506 1.73641,9.00642 2.52967,13.52347 0.21598,1.239 0.16029,2.52873 0.22639,3.71563 z m -49.08518,-4.27542 h 14.72569 c 5.27712,0 10.5547,0.009 15.83182,-0.01 0.74618,-0.003 1.50775,-0.0678 2.23582,-0.22779 4.40643,-0.96557 7.48306,-4.86426 7.52653,-9.56391 0.0231,-2.49784 -0.47316,-4.9468 -1.04547,-7.35057 -1.29539,-5.44757 -6.27369,-9.51826 -11.56168,-9.54131 -6.87905,-0.03 -13.75901,-0.007 -20.63851,-0.007 l -24.5478,-4.6e-4 c -3.25548,0 -6.5105,-0.005 -9.76597,0.007 -0.49896,0.002 -1.00335,0.0452 -1.49552,0.12819 -5.04214,0.85259 -9.19366,4.80247 -10.32334,9.87976 -0.38305,1.72133 -0.67418,3.46802 -0.93272,5.21425 -0.33505,2.26451 -0.0249,4.45571 1.06765,6.47354 1.79753,3.32092 4.62467,4.95694 8.31617,4.98876 4.69078,0.0406 9.38201,0.01 14.07324,0.01 h 16.53409 z m 29.06742,30.22952 h -58.06875 v 4.54932 h 58.06875 v -4.54932 z m -58.06286,-11.9211 v 4.56315 h 58.05019 v -4.56315 h -58.05019 z m 71.87847,-8.1815 c -4.32086,0.008 -7.83713,3.5833 -7.84845,7.97953 -0.0109,4.4073 3.53801,8.02379 7.86702,8.01688 4.33851,-0.008 7.85388,-3.6105 7.83984,-8.03579 -0.0122,-4.39485 -3.54072,-7.96892 -7.85841,-7.96062 z m -93.49906,7.96062 c -0.0421,4.3824 3.46737,7.99798 7.80045,8.03579 4.29324,0.036 7.84709,-3.51736 7.8892,-7.88915 0.043,-4.44926 -3.4239,-8.0676 -7.77057,-8.10956 -4.34214,-0.0429 -7.87607,3.5109 -7.91908,7.96292 z" />
    <path
       style="fill:#ffffff"
       inkscape:connector-curvature="0"
       id="path8"
       d="m 166.6503,200.33221 h -16.53364 c -4.69123,0 -9.38246,0.0309 -14.07324,-0.01 -3.69104,-0.0318 -6.51819,-1.6683 -8.31617,-4.98876 -1.09255,-2.01737 -1.4027,-4.20903 -1.06765,-6.47354 0.25854,-1.74669 0.54922,-3.49292 0.93273,-5.21425 1.12968,-5.07729 5.2812,-9.02717 10.32333,-9.87976 0.49217,-0.0835 0.99656,-0.12635 1.49552,-0.12819 3.25548,-0.0115 6.5105,-0.007 9.76597,-0.007 8.1826,0 16.36565,0 24.54825,4.6e-4 6.87905,0 13.75856,-0.0226 20.63761,0.007 5.28845,0.0231 10.26629,4.09374 11.56259,9.54131 0.57231,2.40377 1.0672,4.85319 1.04456,7.35057 -0.0426,4.69965 -3.11919,8.59834 -7.52608,9.56391 -0.72806,0.15954 -1.48963,0.22502 -2.23581,0.22779 -5.27667,0.0189 -10.55471,0.01 -15.83183,0.01 H 166.6503 z" />
    <path
       style="fill:#ffffff"
       inkscape:connector-curvature="0"
       id="path10"
       d="m 195.71772,230.56173 v 4.54932 h -58.06875 v -4.54932 h 58.06875 z" />
    <path
       style="fill:#ffffff"
       inkscape:connector-curvature="0"
       id="path12"
       d="m 137.65486,218.64063 h 58.05019 v 4.56315 h -58.05019 v -4.56315 z" />
    <path
       style="fill:#ffffff"
       inkscape:connector-curvature="0"
       id="path14"
       d="m 209.53333,210.45913 c 4.31724,-0.008 7.84573,3.56577 7.85841,7.96062 0.0131,4.42529 -3.50133,8.02749 -7.83984,8.03533 -4.32901,0.008 -7.87789,-3.60912 -7.86702,-8.01642 0.0122,-4.39623 3.52759,-7.97123 7.84845,-7.97953 z" />
    <path
       style="fill:#ffffff"
       inkscape:connector-curvature="0"
       id="path16"
       d="m 116.03427,218.41975 c 0.043,-4.45202 3.57694,-8.00581 7.91908,-7.96385 4.34621,0.042 7.81313,3.6603 7.77057,8.11003 -0.0421,4.37133 -3.59596,7.92557 -7.8892,7.88822 -4.33308,-0.0364 -7.84256,-3.652 -7.80045,-8.0344 z" />
  </g>
</svg>
