<?xml version="1.0" encoding="UTF-8" standalone="no"?>
<svg
   xmlns:dc="http://purl.org/dc/elements/1.1/"
   xmlns:cc="http://creativecommons.org/ns#"
   xmlns:rdf="http://www.w3.org/1999/02/22-rdf-syntax-ns#"
   xmlns:svg="http://www.w3.org/2000/svg"
   xmlns="http://www.w3.org/2000/svg"
   xmlns:sodipodi="http://sodipodi.sourceforge.net/DTD/sodipodi-0.dtd"
   xmlns:inkscape="http://www.inkscape.org/namespaces/inkscape"
   width="160"
   height="160"
   id="svg2"
   version="1.1"
   inkscape:version="0.48.5 r10040"
   sodipodi:docname="rs_ltl.svg">
  <metadata
     id="metadata24">
    <rdf:RDF>
      <cc:Work
         rdf:about="">
        <dc:format>image/svg+xml</dc:format>
        <dc:type
           rdf:resource="http://purl.org/dc/dcmitype/StillImage" />
        <dc:title></dc:title>
      </cc:Work>
    </rdf:RDF>
  </metadata>
  <defs
     id="defs22" />
  <sodipodi:namedview
     pagecolor="#ffffff"
     bordercolor="#666666"
     borderopacity="1"
     objecttolerance="10"
     gridtolerance="10"
     guidetolerance="10"
     inkscape:pageopacity="0"
     inkscape:pageshadow="2"
     inkscape:window-width="1600"
     inkscape:window-height="834"
     id="namedview20"
     showgrid="false"
     inkscape:zoom="0.65555556"
     inkscape:cx="152.54237"
     inkscape:cy="180"
     inkscape:window-x="0"
     inkscape:window-y="27"
     inkscape:window-maximized="1"
     inkscape:current-layer="svg2" />
  <rect
     width="160"
     height="160"
     id="rect4"
     x="0"
     y="4.7683716e-07"
     style="fill:#d94e3f" />
  <g
     id="g3101"
     transform="matrix(0.87021385,0,0,0.93549291,-65.146375,4.3458273)">
    <path
       style="fill:#b53a2c"
       inkscape:connector-curvature="0"
       id="path6"
       d="m 215.73548,67.607628 c 1.04818,0.33615 2.18737,0.545495 3.18258,1.049028 3.33289,1.686744 5.22279,4.495833 5.26444,8.280172 0.096,8.826589 0.0851,17.655945 0.005,26.482532 -0.0317,3.57407 -1.78033,6.26835 -4.80352,8.07498 -0.30608,0.1826 -0.40977,0.35459 -0.40886,0.70135 0.01,4.64339 -0.0457,9.2877 0.0213,13.93017 0.0666,4.68765 -3.67474,8.08835 -7.89237,8.18333 -1.55891,0.0351 -3.10153,0.002 -4.5803,-0.6165 -3.04674,-1.27497 -4.92984,-4.07392 -4.93573,-7.42712 -0.009,-4.30355 -0.002,-8.60664 -0.002,-12.90973 v -0.64555 h -69.75223 v 0.57362 c 0,4.28695 -0.0693,8.57482 0.019,12.85947 0.0937,4.55301 -3.57649,8.04593 -7.79864,8.15844 -1.42172,0.0383 -2.83801,0.048 -4.20993,-0.43621 -3.16582,-1.11958 -5.55784,-4.09006 -5.41024,-8.44064 0.15168,-4.48523 0.0326,-8.97922 0.0172,-13.4686 -4.6e-4,-0.14386 -0.12678,-0.34491 -0.2522,-0.42053 -3.27313,-1.98232 -4.86555,-4.91545 -4.86148,-8.78371 0.009,-8.487207 -0.0131,-16.97488 0.0109,-25.463013 0.01,-3.51505 1.51318,-6.2582 4.40689,-8.162589 1.26098,-0.83 2.67048,-1.311861 4.19362,-1.377339 0.26443,-0.01153 0.5284,-0.04473 0.80776,-0.0687 0,-0.16185 0.0258,-0.299261 -0.004,-0.4233 -0.47995,-1.99615 -0.27575,-3.982617 0.053,-5.972311 1.3289,-8.045928 2.66505,-16.090934 3.96588,-24.141472 0.35136,-2.173217 0.87884,-4.260206 2.17877,-6.066839 1.32709,-1.844445 2.98109,-3.203339 5.26897,-3.584678 0.31106,-0.05211 0.63163,-0.06363 0.94767,-0.06363 23.4489,-0.0028 46.89827,-0.0014 70.34717,-0.0051 1.93789,0 3.57016,0.770056 5.00863,2.021973 1.92295,1.674755 3.11783,3.824455 3.62675,6.316761 0.99159,4.858727 1.89986,9.734977 2.82986,14.606616 0.85892,4.505056 1.73641,9.006423 2.52967,13.523467 0.21598,1.239005 0.16029,2.528733 0.22639,3.715633 z M 166.6503,63.332206 h 14.72569 c 5.27712,0 10.5547,0.0092 15.83182,-0.0097 0.74618,-0.0028 1.50775,-0.06778 2.23582,-0.227789 4.40643,-0.965567 7.48306,-4.864261 7.52653,-9.563906 0.0231,-2.497839 -0.47316,-4.9468 -1.04547,-7.350572 -1.29539,-5.447567 -6.27369,-9.518255 -11.56168,-9.541311 -6.87905,-0.02997 -13.75901,-0.0074 -20.63851,-0.0074 l -24.5478,-4.61e-4 c -3.25548,0 -6.5105,-0.0046 -9.76597,0.0069 -0.49896,0.0018 -1.00335,0.04519 -1.49552,0.128189 -5.04214,0.852594 -9.19366,4.802472 -10.32334,9.879766 -0.38305,1.721328 -0.67418,3.468017 -0.93272,5.214245 -0.33505,2.264516 -0.0249,4.455716 1.06765,6.473539 1.79753,3.320922 4.62467,4.956944 8.31617,4.988761 4.69078,0.04058 9.38201,0.0097 14.07324,0.0097 h 16.53409 z m 29.06742,30.229522 h -58.06875 v 4.549322 h 58.06875 V 93.561728 z M 137.65486,81.640623 v 4.563155 h 58.05019 v -4.563155 h -58.05019 z m 71.87847,-8.181495 c -4.32086,0.0083 -7.83713,3.583295 -7.84845,7.979528 -0.0109,4.4073 3.53801,8.023794 7.86702,8.016878 4.33851,-0.0083 7.85388,-3.6105 7.83984,-8.035784 -0.0122,-4.39485 -3.54072,-7.968922 -7.85841,-7.960622 z m -93.49906,7.960622 c -0.0421,4.3824 3.46737,7.997973 7.80045,8.035784 4.29324,0.03597 7.84709,-3.517356 7.8892,-7.88915 0.043,-4.449261 -3.4239,-8.0676 -7.77057,-8.109561 -4.34214,-0.04288 -7.87607,3.5109 -7.91908,7.962927 z" />
    <path
       style="fill:#ffffff"
       inkscape:connector-curvature="0"
       id="path8"
       d="m 166.6503,63.332206 h -16.53364 c -4.69123,0 -9.38246,0.03089 -14.07324,-0.0097 -3.69104,-0.03182 -6.51819,-1.6683 -8.31617,-4.988761 -1.09255,-2.017361 -1.4027,-4.209023 -1.06765,-6.473539 0.25854,-1.746689 0.54922,-3.492917 0.93273,-5.214245 1.12968,-5.077294 5.2812,-9.027172 10.32333,-9.879766 0.49217,-0.08346 0.99656,-0.126345 1.49552,-0.128189 3.25548,-0.01153 6.5105,-0.0069 9.76597,-0.0069 8.1826,0 16.36565,0 24.54825,4.61e-4 6.87905,0 13.75856,-0.02259 20.63761,0.0074 5.28845,0.02306 10.26629,4.093744 11.56259,9.541311 0.57231,2.403772 1.0672,4.853195 1.04456,7.350572 -0.0426,4.699645 -3.11919,8.598339 -7.52608,9.563906 -0.72806,0.159544 -1.48963,0.225022 -2.23581,0.227789 -5.27667,0.01891 -10.55471,0.0097 -15.83183,0.0097 H 166.6503 z" />
    <path
       style="fill:#ffffff"
       inkscape:connector-curvature="0"
       id="path10"
       d="m 195.71772,93.561728 v 4.549322 h -58.06875 v -4.549322 h 58.06875 z" />
    <path
       style="fill:#ffffff"
       inkscape:connector-curvature="0"
       id="path12"
       d="m 137.65486,81.640623 h 58.05019 v 4.563155 h -58.05019 v -4.563155 z" />
    <path
       style="fill:#ffffff"
       inkscape:connector-curvature="0"
       id="path14"
       d="m 209.53333,73.459128 c 4.31724,-0.0083 7.84573,3.565772 7.85841,7.960622 0.0131,4.425284 -3.50133,8.027484 -7.83984,8.035323 -4.32901,0.0078 -7.87789,-3.609117 -7.86702,-8.016417 0.0122,-4.396233 3.52759,-7.971228 7.84845,-7.979528 z" />
    <path
       style="fill:#ffffff"
       inkscape:connector-curvature="0"
       id="path16"
       d="m 116.03427,81.41975 c 0.043,-4.452027 3.57694,-8.005811 7.91908,-7.96385 4.34621,0.04196 7.81313,3.6603 7.77057,8.110023 -0.0421,4.371333 -3.59596,7.925577 -7.8892,7.888227 -4.33308,-0.03643 -7.84256,-3.652 -7.80045,-8.0344 z" />
  </g>
</svg>
