<?xml version="1.0" encoding="UTF-8" standalone="no"?>
<svg
   xmlns:dc="http://purl.org/dc/elements/1.1/"
   xmlns:cc="http://creativecommons.org/ns#"
   xmlns:rdf="http://www.w3.org/1999/02/22-rdf-syntax-ns#"
   xmlns:svg="http://www.w3.org/2000/svg"
   xmlns="http://www.w3.org/2000/svg"
   xmlns:sodipodi="http://sodipodi.sourceforge.net/DTD/sodipodi-0.dtd"
   xmlns:inkscape="http://www.inkscape.org/namespaces/inkscape"
   width="160"
   height="160"
   id="svg2"
   version="1.1"
   inkscape:version="0.48.5 r10040"
   sodipodi:docname="rs_ltl.svg">
  <metadata
     id="metadata24">
    <rdf:RDF>
      <cc:Work
         rdf:about="">
        <dc:format>image/svg+xml</dc:format>
        <dc:type
           rdf:resource="http://purl.org/dc/dcmitype/StillImage" />
        <dc:title />
      </cc:Work>
    </rdf:RDF>
  </metadata>
  <defs
     id="defs22" />
  <sodipodi:namedview
     pagecolor="#ffffff"
     bordercolor="#666666"
     borderopacity="1"
     objecttolerance="10"
     gridtolerance="10"
     guidetolerance="10"
     inkscape:pageopacity="0"
     inkscape:pageshadow="2"
     inkscape:window-width="1600"
     inkscape:window-height="834"
     id="namedview20"
     showgrid="false"
     inkscape:zoom="0.65555556"
     inkscape:cx="-132.71187"
     inkscape:cy="180"
     inkscape:window-x="0"
     inkscape:window-y="27"
     inkscape:window-maximized="1"
     inkscape:current-layer="svg2" />
  <rect
     width="160"
     height="160"
     id="rect4"
     x="0"
     y="4.7683716e-07"
     style="fill:#282b34;fill-opacity:1" />
  <path
     d="m 122.58963,67.592284 c 0.91214,0.314466 1.90348,0.510307 2.76952,0.981358 2.90033,1.577937 4.54495,4.20582 4.58119,7.746042 0.0835,8.257212 0.0741,16.517012 0.004,24.774226 -0.0276,3.34351 -1.54927,5.86399 -4.18009,7.55408 -0.26635,0.17082 -0.35658,0.33172 -0.35579,0.65611 0.009,4.34386 -0.0398,8.68858 0.0185,13.03158 0.058,4.38526 -3.19781,7.56659 -6.86805,7.65544 -1.35658,0.0328 -2.69899,0.002 -3.98584,-0.57673 -2.65131,-1.19272 -4.29001,-3.81112 -4.29514,-6.94802 -0.008,-4.02594 -0.002,-8.05145 -0.002,-12.07696 V 109.7855 H 49.577215 v 0.53662 c 0,4.01041 -0.06031,8.02169 0.01653,12.02994 0.08154,4.25931 -3.112311,7.52692 -6.786485,7.63217 -1.2372,0.0358 -2.469675,0.0449 -3.663539,-0.40807 -2.75494,-1.04736 -4.836509,-3.82623 -4.708066,-7.89616 0.131994,-4.1959 0.02837,-8.4 0.01497,-12.59978 -4e-4,-0.13458 -0.110326,-0.32266 -0.219468,-0.39341 -2.848323,-1.85444 -4.234069,-4.59836 -4.230527,-8.21709 0.0078,-7.939726 -0.0114,-15.879883 0.0095,-23.820472 0.0087,-3.288304 1.31679,-5.854501 3.834937,-7.636044 1.097322,-0.776459 2.323889,-1.227237 3.649346,-1.288491 0.230111,-0.01079 0.459821,-0.04184 0.702924,-0.06427 0,-0.15141 0.02245,-0.279957 -0.0035,-0.395994 -0.417659,-1.867384 -0.239961,-3.72571 0.04612,-5.587055 1.156428,-7.526908 2.319164,-15.052955 3.451164,-22.584176 0.305759,-2.033029 0.764779,-3.985392 1.895996,-5.675485 1.154852,-1.725465 2.594186,-2.996701 4.585131,-3.35344 0.270688,-0.04875 0.549653,-0.05953 0.824675,-0.05953 20.405558,-0.0026 40.811524,-0.0013 61.21708,-0.0048 1.68638,0 3.1068,0.720382 4.35858,1.891542 1.67338,1.566721 2.71318,3.57775 3.15605,5.909285 0.86289,4.545304 1.65328,9.107002 2.46258,13.664385 0.74745,4.214448 1.51105,8.425445 2.20136,12.651108 0.18795,1.15908 0.13948,2.365612 0.197,3.475948 z M 79.875024,63.592657 h 12.8145 c 4.592222,0 9.184846,0.0086 13.777066,-0.0091 0.64934,-0.0026 1.31207,-0.06341 1.94564,-0.213095 3.83454,-0.903281 6.51187,-4.550482 6.54969,-8.946967 0.0201,-2.33671 -0.41175,-4.627696 -0.90978,-6.876408 -1.12726,-5.09616 -5.45945,-8.90426 -10.06113,-8.925828 -5.986246,-0.02804 -11.973283,-0.0069 -17.959919,-0.0069 l -21.361836,-4.31e-4 c -2.832963,0 -5.665527,-0.0043 -8.498482,0.0065 -0.434202,0.0017 -0.873129,0.04227 -1.301422,0.11992 -4.38774,0.797595 -8.00045,4.492678 -8.983514,9.242451 -0.333335,1.61029 -0.58668,3.244305 -0.811665,4.877889 -0.291566,2.118439 -0.02167,4.168291 0.929083,6.05595 1.564236,3.106699 4.024452,4.637186 7.236847,4.66695 4.081981,0.03796 8.164355,0.0091 12.246728,0.0091 H 79.875024 z M 105.1699,91.87216 H 54.637665 v 4.255859 H 105.1699 V 91.87216 z M 54.642791,80.720051 V 84.98885 H 105.15887 V 80.720051 H 54.642791 z m 62.549639,-7.65373 c -3.76007,0.0078 -6.81998,3.352147 -6.82983,7.464792 -0.009,4.122997 3.07883,7.506202 6.84599,7.499732 3.77543,-0.0078 6.83456,-3.377597 6.82234,-7.517419 -0.0106,-4.111351 -3.08119,-7.45487 -6.8385,-7.447105 z m -81.364176,7.447105 c -0.03664,4.099704 3.017353,7.482047 6.788059,7.517419 3.736037,0.03365 6.828647,-3.290461 6.865292,-7.380244 0.03742,-4.162252 -2.979526,-7.547182 -6.762058,-7.586437 -3.77859,-0.04011 -6.853865,3.284422 -6.891293,7.449262 z"
     id="path6"
     inkscape:connector-curvature="0"
     style="fill:#b53a2c" />
  <path
     d="M 79.875024,63.592657 H 65.487222 c -4.082374,0 -8.164747,0.0289 -12.246729,-0.0091 -3.211994,-0.02977 -5.672219,-1.560683 -7.236846,-4.666951 -0.950752,-1.887227 -1.220649,-3.937511 -0.929084,-6.05595 0.224985,-1.634015 0.477939,-3.267599 0.811675,-4.877889 0.983063,-4.749772 4.595773,-8.444855 8.983504,-9.242451 0.428294,-0.07808 0.867221,-0.118195 1.301423,-0.11992 2.832963,-0.01079 5.665527,-0.0065 8.498482,-0.0065 7.120612,0 14.241615,0 21.362227,4.32e-4 5.986245,0 11.97289,-0.02113 17.959136,0.0069 4.60208,0.02157 8.93387,3.829669 10.06192,8.925829 0.49804,2.248712 0.9287,4.540129 0.90899,6.876408 -0.0371,4.396485 -2.71436,8.043685 -6.54929,8.946966 -0.63357,0.149252 -1.2963,0.210507 -1.94564,0.213095 -4.59183,0.01769 -9.184852,0.0091 -13.777075,0.0091 H 79.875024 z"
     id="path8"
     inkscape:connector-curvature="0"
     style="fill:#ffffff" />
  <path
     d="m 105.1699,91.87216 v 4.255859 H 54.637665 V 91.87216 H 105.1699 z"
     id="path10"
     inkscape:connector-curvature="0"
     style="fill:#ffffff" />
  <path
     d="M 54.642791,80.720051 H 105.15887 V 84.98885 H 54.642791 v -4.268799 z"
     id="path12"
     inkscape:connector-curvature="0"
     style="fill:#ffffff" />
  <path
     d="m 117.19243,73.066321 c 3.75692,-0.0078 6.82746,3.335754 6.8385,7.447105 0.0114,4.139822 -3.04691,7.509655 -6.82234,7.516988 -3.76716,0.0073 -6.85545,-3.376304 -6.84599,-7.499301 0.0106,-4.112645 3.06976,-7.457028 6.82983,-7.464792 z"
     id="path14"
     inkscape:connector-curvature="0"
     style="fill:#ffffff" />
  <path
     d="m 35.828254,80.513426 c 0.03742,-4.16484 3.112703,-7.489379 6.891293,-7.450125 3.782132,0.03925 6.799094,3.424185 6.762058,7.586869 -0.03664,4.089351 -3.129255,7.414321 -6.865292,7.37938 -3.770706,-0.03408 -6.824704,-3.41642 -6.788059,-7.516124 z"
     id="path16"
     inkscape:connector-curvature="0"
     style="fill:#ffffff" />
</svg>
