<?xml version="1.0" encoding="UTF-8" standalone="no"?>
<svg
   xmlns:dc="http://purl.org/dc/elements/1.1/"
   xmlns:cc="http://creativecommons.org/ns#"
   xmlns:rdf="http://www.w3.org/1999/02/22-rdf-syntax-ns#"
   xmlns:svg="http://www.w3.org/2000/svg"
   xmlns="http://www.w3.org/2000/svg"
   xmlns:sodipodi="http://sodipodi.sourceforge.net/DTD/sodipodi-0.dtd"
   xmlns:inkscape="http://www.inkscape.org/namespaces/inkscape"
   width="326"
   height="166"
   id="svg2"
   version="1.1"
   inkscape:version="0.48.5 r10040"
   sodipodi:docname="driving.svg">
  <metadata
     id="metadata24">
    <rdf:RDF>
      <cc:Work
         rdf:about="">
        <dc:format>image/svg+xml</dc:format>
        <dc:type
           rdf:resource="http://purl.org/dc/dcmitype/StillImage" />
        <dc:title></dc:title>
      </cc:Work>
    </rdf:RDF>
  </metadata>
  <defs
     id="defs22" />
  <sodipodi:namedview
     pagecolor="#ffffff"
     bordercolor="#666666"
     borderopacity="1"
     objecttolerance="10"
     gridtolerance="10"
     guidetolerance="10"
     inkscape:pageopacity="0"
     inkscape:pageshadow="2"
     inkscape:window-width="1600"
     inkscape:window-height="834"
     id="namedview20"
     showgrid="false"
     inkscape:zoom="0.65555556"
     inkscape:cx="360"
     inkscape:cy="180"
     inkscape:window-x="0"
     inkscape:window-y="27"
     inkscape:window-maximized="1"
     inkscape:current-layer="svg2" />
  <g
     id="g3001"
     transform="matrix(0.45277778,0,0,0.46111111,0,89.455556)">
    <rect
       style="fill:#d94e3f"
       y="-194"
       x="0"
       id="rect4"
       height="360"
       width="720" />
    <path
       style="fill:#b53a2c"
       inkscape:connector-curvature="0"
       id="path6"
       d="m 476.471,-34.369 c 2.315,0.729 4.831,1.183 7.029,2.275 7.361,3.658 11.535,9.75 11.627,17.957 0.212,19.142 0.188,38.29 0.012,57.432 -0.07,7.751 -3.932,13.594 -10.609,17.512 -0.676,0.396 -0.905,0.769 -0.903,1.521 0.022,10.07 -0.101,20.142 0.047,30.21 0.147,10.166 -8.116,17.541 -17.431,17.747 -3.443,0.076 -6.85,0.005 -10.116,-1.337 -6.729,-2.765 -10.888,-8.835 -10.901,-16.107 -0.019,-9.333 -0.005,-18.665 -0.005,-27.997 v -1.4 H 291.167 v 1.244 c 0,9.297 -0.153,18.596 0.042,27.888 0.207,9.874 -7.899,17.449 -17.224,17.693 -3.14,0.083 -6.268,0.104 -9.298,-0.946 -6.992,-2.428 -12.275,-8.87 -11.949,-18.305 0.335,-9.727 0.072,-19.473 0.038,-29.209 -0.001,-0.312 -0.28,-0.748 -0.557,-0.912 -7.229,-4.299 -10.746,-10.66 -10.737,-19.049 0.02,-18.406 -0.029,-36.813 0.024,-55.221 0.022,-7.623 3.342,-13.572 9.733,-17.702 2.785,-1.8 5.898,-2.845 9.262,-2.987 0.584,-0.025 1.167,-0.097 1.784,-0.149 0,-0.351 0.057,-0.649 -0.009,-0.918 -1.06,-4.329 -0.609,-8.637 0.117,-12.952 2.935,-17.449 5.886,-34.896 8.759,-52.355 0.776,-4.713 1.941,-9.239 4.812,-13.157 2.931,-4 6.584,-6.947 11.637,-7.774 0.687,-0.113 1.395,-0.138 2.093,-0.138 51.789,-0.006 103.579,-0.003 155.368,-0.011 4.28,0 7.885,1.67 11.062,4.385 4.247,3.632 6.886,8.294 8.01,13.699 2.19,10.537 4.196,21.112 6.25,31.677 1.897,9.77 3.835,19.532 5.587,29.328 0.477,2.687 0.354,5.484 0.5,8.058 z m -108.409,-9.272 h 32.523 c 11.655,0 23.311,0.02 34.966,-0.021 1.648,-0.006 3.33,-0.147 4.938,-0.494 9.732,-2.094 16.527,-10.549 16.623,-20.741 0.051,-5.417 -1.045,-10.728 -2.309,-15.941 -2.861,-11.814 -13.856,-20.642 -25.535,-20.692 -15.193,-0.065 -30.388,-0.016 -45.582,-0.016 l -54.216,-10e-4 c -7.19,0 -14.379,-0.01 -21.569,0.015 -1.102,0.004 -2.216,0.098 -3.303,0.278 -11.136,1.849 -20.305,10.415 -22.8,21.426 -0.846,3.733 -1.489,7.521 -2.06,11.308 -0.74,4.911 -0.055,9.663 2.358,14.039 3.97,7.202 10.214,10.75 18.367,10.819 10.36,0.088 20.721,0.021 31.082,0.021 h 36.517 z M 432.26,21.917 H 304.01 v 9.866 H 432.26 V 21.917 z M 304.023,-3.936 V 5.96 H 432.232 V -3.936 H 304.023 z m 158.75,-17.743 c -9.543,0.018 -17.309,7.771 -17.334,17.305 -0.024,9.558 7.814,17.401 17.375,17.386 9.582,-0.018 17.346,-7.83 17.315,-17.427 -0.027,-9.531 -7.82,-17.282 -17.356,-17.264 z M 256.272,-4.415 c -0.093,9.504 7.658,17.345 17.228,17.427 9.482,0.078 17.331,-7.628 17.424,-17.109 0.095,-9.649 -7.562,-17.496 -17.162,-17.587 -9.59,-0.093 -17.395,7.614 -17.49,17.269 z" />
    <path
       style="fill:#ffffff"
       inkscape:connector-curvature="0"
       id="path8"
       d="m 368.062,-43.641 h -36.516 c -10.361,0 -20.722,0.067 -31.082,-0.021 -8.152,-0.069 -14.396,-3.618 -18.367,-10.819 -2.413,-4.375 -3.098,-9.128 -2.358,-14.039 0.571,-3.788 1.213,-7.575 2.06,-11.308 2.495,-11.011 11.664,-19.577 22.8,-21.426 1.087,-0.181 2.201,-0.274 3.303,-0.278 7.19,-0.025 14.379,-0.015 21.569,-0.015 18.072,0 36.145,0 54.217,10e-4 15.193,0 30.387,-0.049 45.58,0.016 11.68,0.05 22.674,8.878 25.537,20.692 1.264,5.213 2.357,10.525 2.307,15.941 -0.094,10.192 -6.889,18.647 -16.622,20.741 -1.608,0.346 -3.29,0.488 -4.938,0.494 -11.654,0.041 -23.311,0.021 -34.966,0.021 h -32.524 z" />
    <path
       style="fill:#ffffff"
       inkscape:connector-curvature="0"
       id="path10"
       d="m 432.26,21.917 v 9.866 H 304.01 v -9.866 h 128.25 z" />
    <path
       style="fill:#ffffff"
       inkscape:connector-curvature="0"
       id="path12"
       d="M 304.023,-3.936 H 432.232 V 5.96 H 304.023 v -9.896 z" />
    <path
       style="fill:#ffffff"
       inkscape:connector-curvature="0"
       id="path14"
       d="m 462.773,-21.679 c 9.535,-0.018 17.328,7.733 17.356,17.264 0.029,9.597 -7.733,17.409 -17.315,17.426 -9.561,0.017 -17.399,-7.827 -17.375,-17.385 0.027,-9.534 7.791,-17.287 17.334,-17.305 z" />
    <path
       style="fill:#ffffff"
       inkscape:connector-curvature="0"
       id="path16"
       d="m 256.272,-4.415 c 0.095,-9.655 7.9,-17.362 17.49,-17.271 9.599,0.091 17.256,7.938 17.162,17.588 -0.093,9.48 -7.942,17.188 -17.424,17.107 -9.57,-0.079 -17.321,-7.92 -17.228,-17.424 z" />
    <polygon
       transform="translate(0,-194)"
       style="opacity:0.02000002;enable-background:new"
       id="polygon18"
       points="720,0 720,360 0,360 579.203,0 " />
  </g>
</svg>
