<?xml version="1.0" encoding="UTF-8" standalone="no"?>
<svg
   xmlns:dc="http://purl.org/dc/elements/1.1/"
   xmlns:cc="http://creativecommons.org/ns#"
   xmlns:rdf="http://www.w3.org/1999/02/22-rdf-syntax-ns#"
   xmlns:svg="http://www.w3.org/2000/svg"
   xmlns="http://www.w3.org/2000/svg"
   xmlns:sodipodi="http://sodipodi.sourceforge.net/DTD/sodipodi-0.dtd"
   xmlns:inkscape="http://www.inkscape.org/namespaces/inkscape"
   width="160"
   height="160"
   viewBox="25 0 160 160"
   enable-background="new 25 0 833 400"
   id="svg2"
   version="1.1"
   inkscape:version="0.48.5 r10040"
   sodipodi:docname="servicios_ltl.svg">
  <metadata
     id="metadata46">
    <rdf:RDF>
      <cc:Work
         rdf:about="">
        <dc:format>image/svg+xml</dc:format>
        <dc:type
           rdf:resource="http://purl.org/dc/dcmitype/StillImage" />
        <dc:title></dc:title>
      </cc:Work>
    </rdf:RDF>
  </metadata>
  <defs
     id="defs44" />
  <sodipodi:namedview
     pagecolor="#ffffff"
     bordercolor="#666666"
     borderopacity="1"
     objecttolerance="10"
     gridtolerance="10"
     guidetolerance="10"
     inkscape:pageopacity="0"
     inkscape:pageshadow="2"
     inkscape:window-width="1600"
     inkscape:window-height="834"
     id="namedview42"
     showgrid="false"
     inkscape:zoom="1.18"
     inkscape:cx="-12.950017"
     inkscape:cy="-112.2151"
     inkscape:window-x="0"
     inkscape:window-y="27"
     inkscape:window-maximized="1"
     inkscape:current-layer="svg2" />
  <rect
     x="25"
     width="160"
     height="160"
     id="rect4"
     y="1.5099033e-14"
     style="fill:#d94e3f" />
  <g
     id="g3035"
     transform="matrix(0.68804303,0,0,0.62499986,-26.150283,28.125026)">
    <path
       style="fill:#b63b2d"
       inkscape:connector-curvature="0"
       id="path6"
       d="m 263.20358,83.381615 c 0.002,10.699755 -0.12358,21.403175 0.0517,32.101305 0.0984,5.98545 -2.39852,10.12536 -7.61178,13.08963 -18.51983,10.53146 -36.97476,21.17227 -55.45243,31.7765 -6.02048,3.4533 -11.93268,3.59355 -18.09245,0.0626 -18.77361,-10.76275 -37.60549,-21.42958 -56.49235,-31.99804 -5.32238,-2.97688 -7.6308,-7.37938 -7.63824,-13.15793 -0.0281,-21.401129 -0.004,-42.803078 -0.0244,-64.206252 -0.007,-6.214323 2.62006,-10.676178 8.23342,-13.811592 18.61696,-10.400565 37.15249,-20.945441 55.63594,-31.5732442 5.78034,-3.3240347 11.28252,-3.6638771 17.15007,-0.3065091 18.78353,10.7517893 37.58607,21.4734973 56.48161,32.0334133 5.65593,3.159398 7.98873,7.548896 7.83125,13.888829 -0.26783,10.694068 -0.0732,21.399508 -0.0723,32.101299 z" />
    <path
       style="fill:#fffbf5"
       inkscape:connector-curvature="0"
       id="path8"
       d="m 203.59642,84.460903 c -2.13565,2.506544 -2.82425,4.434615 -3.33677,6.135867 -1.80705,6.005375 -0.76217,11.53107 4.33123,15.28356 5.41289,3.98828 4.76191,7.39361 3.00156,12.59247 h -34.13357 l -2.33363,-9.65828 -1.72191,-0.15325 c -0.8531,2.99354 -1.78143,6.36148 -2.76431,9.81153 -3.74513,0 -7.27575,0.002 -11.00476,0 -3.27684,-16.60187 13.94019,-35.229398 30.41075,-32.978145 4.83755,0.660587 11.79917,-0.221143 17.55141,-1.033752 z" />
    <path
       style="fill:#fffbf5"
       inkscape:connector-curvature="0"
       id="path10"
       d="m 190.57174,82.921448 c -9.97021,0.07603 -18.35615,-8.031019 -18.45121,-17.835226 -0.0918,-9.599338 8.65707,-18.14215 18.39582,-17.964912 9.3461,0.171954 17.70434,8.275329 18.04368,17.492137 0.35174,9.571281 -8.1582,18.234012 -17.98829,18.308001 z" />
    <path
       style="fill:#fffbf5"
       inkscape:connector-curvature="0"
       id="path12"
       d="m 225.99571,95.287492 c -0.13185,6.528138 -5.97833,12.040418 -12.38775,11.678628 -6.39082,-0.36016 -11.8219,-6.39888 -11.48463,-12.768076 0.31371,-5.907407 6.03619,-11.21725 12.07982,-11.205861 6.4739,0.01052 11.92606,5.6948 11.79256,12.295309 z" />
    <path
       style="fill:#b63b2d"
       inkscape:connector-curvature="0"
       id="path14"
       d="m 207.87639,95.645216 c -0.32074,-0.236181 -0.60634,-0.517083 -0.8469,-0.832938 l -8.3e-4,-8.17e-4 8.3e-4,8.17e-4 c -0.5212,-0.686188 -0.82954,-1.535796 -0.82954,-2.456946 0,-2.267107 1.86864,-4.105344 4.17416,-4.105344 1.59171,0 2.9747,0.875623 3.679,2.163849 0.70431,-1.288226 2.0877,-2.163849 3.679,-2.163849 2.30511,0 4.17417,1.837834 4.17417,4.105344 0,1.329288 -0.64231,2.51101 -1.63842,3.261027 l -6.20979,6.107821 -6.18168,-6.078964 z" />
    <path
       style="fill:#fffbf5"
       inkscape:connector-curvature="0"
       id="path16"
       d="m 225.02067,118.47239 c -3.69346,0.1809 -14.12205,0 -14.12205,0 0,0 2.48243,-7.62654 4.18326,-8.68671 1.95915,-1.22075 4.35892,-0.39188 7.9412,-3.84722 0.54641,3.4277 1.38463,8.6981 1.99759,12.53393 z" />
  </g>
</svg>
