<?xml version="1.0" encoding="UTF-8" standalone="no"?>
<svg
   xmlns:dc="http://purl.org/dc/elements/1.1/"
   xmlns:cc="http://creativecommons.org/ns#"
   xmlns:rdf="http://www.w3.org/1999/02/22-rdf-syntax-ns#"
   xmlns:svg="http://www.w3.org/2000/svg"
   xmlns="http://www.w3.org/2000/svg"
   xmlns:sodipodi="http://sodipodi.sourceforge.net/DTD/sodipodi-0.dtd"
   xmlns:inkscape="http://www.inkscape.org/namespaces/inkscape"
   width="326"
   height="166"
   viewBox="25 0 326 166"
   enable-background="new 25 0 833 400"
   id="svg2"
   version="1.1"
   inkscape:version="0.48.5 r10040"
   sodipodi:docname="servicios_med.svg">
  <metadata
     id="metadata46">
    <rdf:RDF>
      <cc:Work
         rdf:about="">
        <dc:format>image/svg+xml</dc:format>
        <dc:type
           rdf:resource="http://purl.org/dc/dcmitype/StillImage" />
        <dc:title />
      </cc:Work>
    </rdf:RDF>
  </metadata>
  <defs
     id="defs44" />
  <sodipodi:namedview
     pagecolor="#ffffff"
     bordercolor="#666666"
     borderopacity="1"
     objecttolerance="10"
     gridtolerance="10"
     guidetolerance="10"
     inkscape:pageopacity="0"
     inkscape:pageshadow="2"
     inkscape:window-width="1600"
     inkscape:window-height="834"
     id="namedview42"
     showgrid="false"
     inkscape:zoom="1.18"
     inkscape:cx="-12.950017"
     inkscape:cy="-112.2151"
     inkscape:window-x="0"
     inkscape:window-y="27"
     inkscape:window-maximized="1"
     inkscape:current-layer="svg2" />
  <rect
     x="25"
     width="326"
     height="166"
     id="rect4"
     y="0"
     style="fill:#d94e3f" />
  <g
     id="g3043"
     transform="matrix(0.74999983,0,0,0.74999983,52.498324,20.750014)">
    <g
       transform="translate(-9.9445441,2.2352815e-5)"
       id="g3035">
      <path
         d="m 263.20358,83.381615 c 0.002,10.699755 -0.12358,21.403175 0.0517,32.101305 0.0984,5.98545 -2.39852,10.12536 -7.61178,13.08963 -18.51983,10.53146 -36.97476,21.17227 -55.45243,31.7765 -6.02048,3.4533 -11.93268,3.59355 -18.09245,0.0626 -18.77361,-10.76275 -37.60549,-21.42958 -56.49235,-31.99804 -5.32238,-2.97688 -7.6308,-7.37938 -7.63824,-13.15793 -0.0281,-21.401129 -0.004,-42.803078 -0.0244,-64.206252 -0.007,-6.214323 2.62006,-10.676178 8.23342,-13.811592 18.61696,-10.400565 37.15249,-20.945441 55.63594,-31.5732442 5.78034,-3.3240347 11.28252,-3.6638771 17.15007,-0.3065091 18.78353,10.7517893 37.58607,21.4734973 56.48161,32.0334133 5.65593,3.159398 7.98873,7.548896 7.83125,13.888829 -0.26783,10.694068 -0.0732,21.399508 -0.0723,32.101299 z"
         id="path6"
         inkscape:connector-curvature="0"
         style="fill:#b63b2d" />
      <path
         d="m 203.59642,84.460903 c -2.13565,2.506544 -2.82425,4.434615 -3.33677,6.135867 -1.80705,6.005375 -0.76217,11.53107 4.33123,15.28356 5.41289,3.98828 4.76191,7.39361 3.00156,12.59247 h -34.13357 l -2.33363,-9.65828 -1.72191,-0.15325 c -0.8531,2.99354 -1.78143,6.36148 -2.76431,9.81153 -3.74513,0 -7.27575,0.002 -11.00476,0 -3.27684,-16.60187 13.94019,-35.229398 30.41075,-32.978145 4.83755,0.660587 11.79917,-0.221143 17.55141,-1.033752 z"
         id="path8"
         inkscape:connector-curvature="0"
         style="fill:#fffbf5" />
      <path
         d="m 190.57174,82.921448 c -9.97021,0.07603 -18.35615,-8.031019 -18.45121,-17.835226 -0.0918,-9.599338 8.65707,-18.14215 18.39582,-17.964912 9.3461,0.171954 17.70434,8.275329 18.04368,17.492137 0.35174,9.571281 -8.1582,18.234012 -17.98829,18.308001 z"
         id="path10"
         inkscape:connector-curvature="0"
         style="fill:#fffbf5" />
      <path
         d="m 225.99571,95.287492 c -0.13185,6.528138 -5.97833,12.040418 -12.38775,11.678628 -6.39082,-0.36016 -11.8219,-6.39888 -11.48463,-12.768076 0.31371,-5.907407 6.03619,-11.21725 12.07982,-11.205861 6.4739,0.01052 11.92606,5.6948 11.79256,12.295309 z"
         id="path12"
         inkscape:connector-curvature="0"
         style="fill:#fffbf5" />
      <path
         d="m 207.87639,95.645216 c -0.32074,-0.236181 -0.60634,-0.517083 -0.8469,-0.832938 l -8.3e-4,-8.17e-4 8.3e-4,8.17e-4 c -0.5212,-0.686188 -0.82954,-1.535796 -0.82954,-2.456946 0,-2.267107 1.86864,-4.105344 4.17416,-4.105344 1.59171,0 2.9747,0.875623 3.679,2.163849 0.70431,-1.288226 2.0877,-2.163849 3.679,-2.163849 2.30511,0 4.17417,1.837834 4.17417,4.105344 0,1.329288 -0.64231,2.51101 -1.63842,3.261027 l -6.20979,6.107821 -6.18168,-6.078964 z"
         id="path14"
         inkscape:connector-curvature="0"
         style="fill:#b63b2d" />
      <path
         d="m 225.02067,118.47239 c -3.69346,0.1809 -14.12205,0 -14.12205,0 0,0 2.48243,-7.62654 4.18326,-8.68671 1.95915,-1.22075 4.35892,-0.39188 7.9412,-3.84722 0.54641,3.4277 1.38463,8.6981 1.99759,12.53393 z"
         id="path16"
         inkscape:connector-curvature="0"
         style="fill:#fffbf5" />
    </g>
    <g
       transform="translate(-9.2187098,-13.414796)"
       id="g3019">
      <path
         d="m 332.95001,96.650514 c 10e-4,6.622466 -0.0765,13.246546 0.0322,19.867386 0.0608,3.70412 -1.48466,6.26676 -4.71065,8.10134 -11.4619,6.51798 -22.88371,13.10345 -34.31957,19.66656 -3.72612,2.13743 -7.38486,2.22402 -11.19737,0.039 -11.61855,-6.66107 -23.27388,-13.2628 -34.96311,-19.80355 -3.29419,-1.84231 -4.72264,-4.56714 -4.7276,-8.14362 -0.0174,-13.24492 -0.002,-26.490652 -0.0149,-39.737197 -0.004,-3.845991 1.62188,-6.607413 5.09546,-8.547689 11.52224,-6.437088 22.99365,-12.963202 34.43364,-19.540539 3.57691,-2.057347 6.9827,-2.267513 10.61417,-0.189839 11.62475,6.654166 23.26149,13.290035 34.95609,19.825504 3.50044,1.955717 4.94418,4.672025 4.84705,8.596068 -0.16616,6.617986 -0.0459,13.243289 -0.0455,19.866556 z"
         id="path18"
         inkscape:connector-curvature="0"
         style="fill:#ffd259;fill-opacity:1" />
      <path
         d="m 296.05956,97.318822 c -1.32181,1.551247 -1.74794,2.744758 -2.06538,3.797618 -1.11804,3.71713 -0.4716,7.13669 2.68041,9.45909 3.34999,2.46792 2.947,4.57568 1.85748,7.7932 h -21.12501 l -1.44415,-5.97732 -1.06555,-0.0947 c -0.52782,1.85288 -1.10275,3.93746 -1.71117,6.07245 -2.31751,0 -4.50317,9.9e-4 -6.81117,0 -2.02777,-10.27455 8.62732,-21.803582 18.82114,-20.410061 2.99495,0.408542 7.30344,-0.137406 10.8634,-0.640257 z"
         id="path20"
         inkscape:connector-curvature="0"
         style="fill:#fffbf5" />
      <path
         d="m 287.9985,96.365964 c -6.17052,0.04672 -11.36022,-4.970403 -11.41933,-11.037975 -0.0566,-5.941152 5.35793,-11.228217 11.38502,-11.11887 5.78406,0.106505 10.95723,5.122032 11.1672,10.826186 0.21782,5.923261 -5.04917,11.285122 -11.13289,11.330659 z"
         id="path22"
         inkscape:connector-curvature="0"
         style="fill:#fffbf5" />
      <path
         d="m 309.92205,104.01933 c -0.0814,4.0399 -3.69967,7.45173 -7.66675,7.22775 -3.9551,-0.22317 -7.31626,-3.96022 -7.10753,-7.90215 0.19426,-3.656155 3.73563,-6.942379 7.47621,-6.935475 4.00677,0.0069 7.38074,3.524855 7.29807,7.609875 z"
         id="path24"
         inkscape:connector-curvature="0"
         style="fill:#fffbf5" />
      <path
         d="m 298.70815,104.24047 c -0.1984,-0.14594 -0.3753,-0.31992 -0.5241,-0.51545 l -8.3e-4,-4.1e-4 8.3e-4,4.1e-4 c -0.32281,-0.4244 -0.51335,-0.95083 -0.51335,-1.52035 0,-1.40328 1.15648,-2.540689 2.58328,-2.540689 0.98495,0 1.84095,0.541879 2.277,1.339049 0.43606,-0.79717 1.29206,-1.339049 2.27701,-1.339049 1.42679,0 2.58328,1.137409 2.58328,2.540689 0,0.82237 -0.39721,1.55368 -1.01389,2.01832 l -3.8435,3.78014 -3.82573,-3.76266 z"
         id="path26"
         inkscape:connector-curvature="0"
         style="fill:#ffd259;fill-opacity:1" />
      <path
         d="m 309.31901,118.36833 c -2.28568,0.11178 -8.74016,0 -8.74016,0 0,0 1.53633,-4.71959 2.58907,-5.3761 1.2131,-0.75571 2.69777,-0.24269 4.91525,-2.38093 0.33769,2.12117 0.85641,5.38301 1.23584,7.75703 z"
         id="path28"
         inkscape:connector-curvature="0"
         style="fill:#fffbf5" />
    </g>
    <g
       transform="translate(16.556593,-13.414796)"
       id="g3027">
      <path
         d="m 110.901,96.650514 c 0.001,6.622466 -0.0765,13.246546 0.0322,19.867386 0.0608,3.70412 -1.48466,6.26676 -4.71066,8.10134 -11.4619,6.51798 -22.8837,13.10345 -34.319562,19.66656 -3.726119,2.13743 -7.384867,2.22402 -11.197371,0.039 -11.618549,-6.66107 -23.273883,-13.2628 -34.96311,-19.80355 -3.294196,-1.84231 -4.722645,-4.56714 -4.727605,-8.14362 -0.01736,-13.24492 -0.0021,-26.490652 -0.01488,-39.737197 -0.0041,-3.845991 1.621885,-6.607413 5.095463,-8.547689 11.522244,-6.437088 22.993649,-12.963202 34.433641,-19.540539 3.57691,-2.057347 6.982703,-2.267513 10.614171,-0.189839 11.624753,6.654166 23.261483,13.290035 34.956083,19.825504 3.50045,1.955717 4.94419,4.672025 4.84706,8.596068 -0.16616,6.617986 -0.0459,13.243289 -0.0455,19.866556 z"
         id="path30"
         inkscape:connector-curvature="0"
         style="fill:#ffd259" />
      <path
         d="m 74.010559,97.318822 c -1.321811,1.551247 -1.747949,2.744758 -2.065382,3.797618 -1.118042,3.71713 -0.471603,7.13669 2.680409,9.45909 3.349994,2.46792 2.947003,4.57568 1.85748,7.7932 h -21.12501 l -1.444155,-5.97732 -1.065551,-0.0947 c -0.527815,1.85288 -1.102749,3.93746 -1.711163,6.07245 -2.317509,0 -4.503169,9.9e-4 -6.811172,0 -2.02777,-10.27455 8.62732,-21.803582 18.821139,-20.410061 2.994949,0.408542 7.303442,-0.137406 10.863405,-0.640257 z"
         id="path32"
         inkscape:connector-curvature="0"
         style="fill:#fffbf5" />
      <path
         d="m 65.949494,96.365964 c -6.17052,0.04672 -11.360221,-4.970403 -11.419327,-11.037975 -0.05662,-5.941152 5.357924,-11.228217 11.385021,-11.11887 5.784061,0.106505 10.957229,5.122032 11.167198,10.826186 0.217822,5.923261 -5.049171,11.285122 -11.132892,11.330659 z"
         id="path34"
         inkscape:connector-curvature="0"
         style="fill:#fffbf5" />
      <path
         d="m 87.87305,104.01933 c -0.0814,4.0399 -3.69967,7.45173 -7.66676,7.22775 -3.955099,-0.22317 -7.316253,-3.96022 -7.107524,-7.90215 0.194262,-3.656155 3.735625,-6.942379 7.476214,-6.935475 4.00676,0.0069 7.38073,3.524855 7.29807,7.609875 z"
         id="path36"
         inkscape:connector-curvature="0"
         style="fill:#fffbf5" />
      <path
         d="m 76.659142,104.24047 c -0.198396,-0.14594 -0.375299,-0.31992 -0.524096,-0.51545 l -8.26e-4,-4.1e-4 8.26e-4,4.1e-4 c -0.322806,-0.4244 -0.513348,-0.95083 -0.513348,-1.52035 0,-1.40328 1.156481,-2.540689 2.583272,-2.540689 0.98496,0 1.84095,0.541879 2.27701,1.339049 0.43606,-0.79717 1.29205,-1.339049 2.277,-1.339049 1.4268,0 2.58328,1.137409 2.58328,2.540689 0,0.82237 -0.3972,1.55368 -1.01388,2.01832 l -3.84351,3.78014 -3.825728,-3.76266 z"
         id="path38"
         inkscape:connector-curvature="0"
         style="fill:#ffd259" />
      <path
         d="m 87.27001,118.36833 c -2.28569,0.11178 -8.74016,0 -8.74016,0 0,0 1.53632,-4.71959 2.58906,-5.3761 1.21311,-0.75571 2.69777,-0.24269 4.91526,-2.38093 0.33768,2.12117 0.8564,5.38301 1.23584,7.75703 z"
         id="path40"
         inkscape:connector-curvature="0"
         style="fill:#fffbf5" />
    </g>
  </g>
</svg>
