<?xml version="1.0" encoding="UTF-8" standalone="no"?>
<svg
   xmlns:dc="http://purl.org/dc/elements/1.1/"
   xmlns:cc="http://creativecommons.org/ns#"
   xmlns:rdf="http://www.w3.org/1999/02/22-rdf-syntax-ns#"
   xmlns:svg="http://www.w3.org/2000/svg"
   xmlns="http://www.w3.org/2000/svg"
   xmlns:sodipodi="http://sodipodi.sourceforge.net/DTD/sodipodi-0.dtd"
   xmlns:inkscape="http://www.inkscape.org/namespaces/inkscape"
   width="1200"
   height="297"
   id="svg2"
   version="1.1"
   inkscape:version="0.48.5 r10040"
   sodipodi:docname="tarifas_big.svg">
  <metadata
     id="metadata32">
    <rdf:RDF>
      <cc:Work
         rdf:about="">
        <dc:format>image/svg+xml</dc:format>
        <dc:type
           rdf:resource="http://purl.org/dc/dcmitype/StillImage" />
        <dc:title></dc:title>
      </cc:Work>
    </rdf:RDF>
  </metadata>
  <defs
     id="defs30" />
  <sodipodi:namedview
     pagecolor="#ffffff"
     bordercolor="#666666"
     borderopacity="1"
     objecttolerance="10"
     gridtolerance="10"
     guidetolerance="10"
     inkscape:pageopacity="0"
     inkscape:pageshadow="2"
     inkscape:window-width="1600"
     inkscape:window-height="834"
     id="namedview28"
     showgrid="false"
     inkscape:zoom="0.834386"
     inkscape:cx="274.77996"
     inkscape:cy="140.5748"
     inkscape:window-x="0"
     inkscape:window-y="27"
     inkscape:window-maximized="1"
     inkscape:current-layer="svg2" />
  <rect
     style="fill:#ffd259"
     y="-5.6843419e-14"
     x="0"
     width="1200"
     height="297"
     id="rect4" />
  <g
     id="g3071"
     transform="matrix(1.6424567,0,0,1.6424567,331.31538,-229.30964)">
    <path
       id="path6"
       d="m 114.66747,163.05431 h 68.63337 l 29.20576,29.27777 V 297 H 114.66747 V 163.05431 z"
       inkscape:connector-curvature="0"
       style="fill:#fffbf5" />
    <path
       id="path8"
       d="m 121.96901,231.02355 v 65.87469 h 17.52338 v -65.87469 h -17.52338 z"
       inkscape:connector-curvature="0"
       style="opacity:0.5;fill:#d1d3d4" />
    <path
       id="path10"
       d="m 165.77746,209.79715 v 87.10109 h 17.52338 v -87.10109 h -17.52338 z"
       inkscape:connector-curvature="0"
       style="opacity:0.5;fill:#d1d3d4" />
    <path
       id="path12"
       d="m 187.68168,238.3427 v 58.55554 h 17.52299 V 238.3427 h -17.52299 z"
       inkscape:connector-curvature="0"
       style="opacity:0.5;fill:#d1d3d4" />
    <path
       id="path14"
       d="m 143.87323,252.98178 v 43.91646 h 17.52338 v -43.91646 h -17.52338 z"
       inkscape:connector-curvature="0"
       style="opacity:0.5;fill:#d1d3d4" />
    <path
       id="path16"
       d="m 131.09622,230.97267 21.5207,22.17113 21.97349,-43.48284 21.70386,28.41561"
       inkscape:connector-curvature="0"
       style="fill:none;stroke:#e64c3c;stroke-width:1.56542611" />
    <path
       id="path18"
       d="m 130.7307,234.68312 c 2.01626,0 3.65057,-1.639 3.65057,-3.65997 0,-2.02135 -1.63431,-3.65957 -3.65057,-3.65957 -2.01627,0 -3.65058,1.63861 -3.65058,3.65957 0,2.02175 1.63431,3.65997 3.65058,3.65997 z"
       inkscape:connector-curvature="0"
       style="fill:#fffbf5;stroke:#e64c3c;stroke-width:1.56542611" />
    <path
       id="path20"
       d="m 152.63492,256.64135 c 2.01627,0 3.65057,-1.63861 3.65057,-3.65957 0,-2.02136 -1.6343,-3.65997 -3.65057,-3.65997 -2.01627,0 -3.65057,1.639 -3.65057,3.65997 0,2.02135 1.6343,3.65957 3.65057,3.65957 z"
       inkscape:connector-curvature="0"
       style="fill:#fffbf5;stroke:#e64c3c;stroke-width:1.56542611" />
    <path
       id="path22"
       d="m 174.53915,213.45672 c 2.01587,0 3.65018,-1.639 3.65018,-3.65996 0,-2.02136 -1.63431,-3.65958 -3.65018,-3.65958 -2.01627,0 -3.65058,1.63861 -3.65058,3.65958 0,2.02214 1.63431,3.65996 3.65058,3.65996 z"
       inkscape:connector-curvature="0"
       style="fill:#fffbf5;stroke:#e64c3c;stroke-width:1.56542611" />
    <path
       id="path24"
       d="m 196.44337,242.00266 c 2.01627,0 3.65058,-1.639 3.65058,-3.65996 0,-2.02136 -1.63431,-3.65997 -3.65058,-3.65997 -2.01627,0 -3.65057,1.639 -3.65057,3.65997 0,2.02174 1.6343,3.65996 3.65057,3.65996 z"
       inkscape:connector-curvature="0"
       style="fill:#fffbf5;stroke:#e64c3c;stroke-width:1.56542611" />
    <path
       id="path26"
       d="m 183.30084,163.05431 v 29.27777 h 29.20576 l -29.20576,-29.27777 z"
       inkscape:connector-curvature="0"
       style="opacity:0.5;fill:#d1d3d4" />
  </g>
</svg>
